<svg width="256" height="256" viewBox="0 0 256 256" fill="none" xmlns="http://www.w3.org/2000/svg">
<g clip-path="url(#clip0_63_465)">
<rect width="256" height="256" fill="#F7FAFC"/>
<path d="M219.963 30.6096C219.585 28.7648 218.539 27.1697 217.016 26.1185L215.397 25.0006C215.104 24.7977 214.762 24.6905 214.408 24.6905C214.044 24.6905 213.692 24.8056 213.398 25.0147V19.6159C213.398 18.7913 212.851 18.0908 212.067 17.9125C211.945 17.8846 211.82 17.8705 211.696 17.8705C210.761 17.8705 210 18.6534 210 19.6159V26.987C210 27.9849 210.297 28.9424 210.86 29.7556L214.357 34.815C214.472 34.9811 214.658 35.0799 214.856 35.0799H220.122C220.122 35.0799 220.123 35.0797 220.124 35.0799C220.462 35.0799 220.737 34.7983 220.737 34.4509C220.737 34.3865 220.727 34.3245 220.71 34.266L219.963 30.6096ZM215.173 33.822L211.859 29.0274C211.444 28.428 211.225 27.7225 211.225 26.987V19.6159C211.225 19.3112 211.502 19.0718 211.802 19.1406C212.021 19.1903 212.173 19.3858 212.173 19.6159V25.4639C212.173 26.3332 212.487 27.1657 213.056 27.8095C213.077 27.8345 213.098 27.8592 213.12 27.8834C213.457 28.2498 213.856 28.6849 214.221 29.0837L214.224 29.0865C214.225 29.0874 214.225 29.0884 214.226 29.0892L215.325 30.29C215.557 30.5432 215.944 30.5554 216.191 30.3178C216.437 30.0799 216.45 29.682 216.218 29.4288C216.204 29.4136 215.704 28.8663 215.116 28.2249L213.988 26.9915L213.978 26.9807C213.786 26.7351 213.793 26.3752 213.998 26.138C214.174 25.9338 214.492 25.8911 214.714 26.0444L216.333 27.1624C217.589 28.0299 218.453 29.3458 218.764 30.8681L219.368 33.822H215.173Z" fill="url(#paint0_linear_63_465)"/>
<path d="M232.304 17.8705C232.18 17.8705 232.055 17.8846 231.933 17.9124C231.149 18.0908 230.602 18.7912 230.602 19.6159V25.0146C230.308 24.8056 229.956 24.6905 229.592 24.6905C229.239 24.6905 228.897 24.7977 228.603 25.0005L226.984 26.1185C225.461 27.1702 224.414 28.7653 224.038 30.6096L223.279 34.3217C223.241 34.5073 223.287 34.7004 223.403 34.8474C223.519 34.9946 223.694 35.08 223.879 35.08H229.144C229.342 35.08 229.528 34.9812 229.643 34.8151L233.14 29.756C233.703 28.943 234 27.9856 234 26.9871V19.6159C234 18.6536 233.239 17.8705 232.304 17.8705ZM232.775 26.987C232.775 27.723 232.556 28.4285 232.142 29.0274L228.827 33.822H224.633L225.237 30.8679C225.547 29.3462 226.411 28.0302 227.668 27.1624L229.287 26.0443C229.509 25.8912 229.826 25.9336 230.003 26.1384C230.209 26.3779 230.218 26.7287 230.025 26.9779L228.42 28.7324C228.418 28.7341 228.416 28.7357 228.415 28.7375L227.782 29.4288C227.551 29.682 227.563 30.0799 227.809 30.3177C228.056 30.5557 228.443 30.5431 228.675 30.29L229.307 29.599C229.766 29.098 230.39 28.4173 230.88 27.883C230.904 27.8571 230.927 27.8305 230.949 27.8036C231.515 27.1607 231.827 26.3302 231.827 25.4636V19.6156C231.827 19.3855 231.979 19.1902 232.198 19.1404C232.233 19.1323 232.269 19.1283 232.304 19.1283C232.564 19.1283 232.775 19.3469 232.775 19.6157L232.775 26.987Z" fill="url(#paint1_linear_63_465)"/>
<path d="M214.932 23.3852H216.906C216.906 23.3929 216.905 23.4003 216.905 23.408V25.1172C216.905 25.4646 217.179 25.7462 217.517 25.7462H226.477C226.815 25.7462 227.09 25.4646 227.09 25.1172V23.4092C227.09 23.4018 227.089 23.3948 227.089 23.3873H229.068C229.406 23.3873 229.68 23.1057 229.68 22.7584V21.8709C229.68 20.7613 228.946 19.8063 227.895 19.5484L227.231 19.3854C227.743 18.9672 228.072 18.3234 228.072 17.6009V16.5011C228.072 15.2431 227.076 14.2197 225.851 14.2197C225.372 14.2197 224.929 14.3779 224.566 14.6438C224.101 13.6713 223.127 13 222.003 13C220.878 13 219.903 13.672 219.439 14.6453C219.075 14.3772 218.63 14.2174 218.149 14.2174C216.924 14.2174 215.927 15.2408 215.927 16.4988V17.5983C215.927 18.3207 216.257 18.9645 216.769 19.3829L216.104 19.5459C215.054 19.8043 214.32 20.7593 214.32 21.8684V22.7562C214.32 23.1037 214.594 23.3852 214.932 23.3852ZM225.865 24.4883H218.13V23.408C218.13 22.5626 218.689 21.8344 219.489 21.6372L220.638 21.3544L221.438 23.2233C221.536 23.4516 221.756 23.5992 221.999 23.5992C222.242 23.5992 222.462 23.4517 222.56 23.2233L223.359 21.3574L224.503 21.6386C225.305 21.8351 225.865 22.5631 225.865 23.4091L225.865 24.4883ZM217.671 18.4958C217.362 18.3217 217.152 17.9847 217.152 17.5983V17.5255H217.649C218.161 17.5255 218.667 17.4335 219.145 17.258V17.5984C219.145 17.9849 218.936 18.3218 218.627 18.4959L217.671 18.4958ZM226.847 17.6008C226.847 17.9874 226.638 18.3244 226.329 18.4983H225.373C225.065 18.3244 224.855 17.9874 224.855 17.6008V17.5197C224.855 17.5003 224.856 17.4811 224.856 17.4617V17.261C225.334 17.4362 225.839 17.528 226.351 17.528H226.848L226.847 17.6008ZM221.606 20.3631C221.735 20.3817 221.868 20.392 222.003 20.392C222.134 20.392 222.264 20.3819 222.391 20.3641V20.4915L221.999 21.4073L221.606 20.4882V20.3631ZM224.065 19.4842C224.143 19.3997 224.217 19.3111 224.286 19.2174C224.344 19.2767 224.406 19.3317 224.47 19.3843L224.065 19.4842ZM223.63 16.899V17.4909C223.615 18.3996 222.891 19.1342 222.003 19.1342C221.105 19.1342 220.374 18.384 220.374 17.4618V17.1135H220.857C221.592 17.1135 222.291 16.8467 222.842 16.3682L223.63 16.8437L223.63 16.899ZM219.716 19.213C219.785 19.3075 219.86 19.3971 219.939 19.4825L219.53 19.3819C219.595 19.3287 219.658 19.273 219.716 19.213ZM226.432 20.4826L227.61 20.7719C228.108 20.8939 228.455 21.3459 228.455 21.8709V22.1294H226.82C226.492 21.3904 225.885 20.8045 225.116 20.5187L225.249 20.486C225.259 20.4839 225.269 20.4816 225.279 20.479C225.555 20.4082 225.739 20.1553 225.743 19.8762C225.779 19.878 225.814 19.8819 225.851 19.8819C225.888 19.8819 225.925 19.878 225.962 19.8761C225.964 20.1649 226.158 20.4153 226.432 20.4826ZM225.851 15.4776C226.323 15.4776 226.72 15.8166 226.822 16.2701H226.351C225.884 16.2701 225.424 16.1658 225.002 15.9662C225.177 15.6733 225.492 15.4776 225.851 15.4776ZM222.003 14.2579C222.69 14.2579 223.279 14.6974 223.518 15.3171L223.055 15.0377C222.797 14.882 222.467 14.9407 222.275 15.1761C221.923 15.6079 221.406 15.8556 220.857 15.8556H220.376C220.414 14.968 221.129 14.2579 222.003 14.2579ZM218.149 15.4753C218.507 15.4753 218.823 15.6709 218.998 15.9636C218.576 16.1631 218.116 16.2676 217.649 16.2676H217.178C217.28 15.8142 217.677 15.4753 218.149 15.4753ZM215.545 21.8684C215.545 21.3436 215.892 20.8915 216.389 20.7694L217.568 20.48C217.842 20.4127 218.036 20.1625 218.038 19.8739C218.075 19.8757 218.111 19.8796 218.149 19.8796C218.185 19.8796 218.221 19.8759 218.257 19.874C218.26 20.1344 218.421 20.376 218.675 20.4631C218.7 20.4714 218.724 20.478 218.749 20.4832L218.881 20.5156C218.111 20.8012 217.503 21.3876 217.175 22.1274H215.545L215.545 21.8684Z" fill="url(#paint2_linear_63_465)"/>
<path d="M38.1711 32.8651C38.0573 32.8651 37.9436 32.8224 37.8569 32.7376C37.6831 32.5675 37.6831 32.2926 37.8569 32.1225C39.9551 30.0685 41.1111 27.3375 41.1111 24.4326C41.1111 21.5277 39.9551 18.7967 37.8569 16.7427C37.6831 16.5726 37.6831 16.2976 37.8569 16.1276C38.0307 15.9575 38.3115 15.9575 38.4853 16.1276C40.7516 18.3461 42 21.2954 42 24.4326C42 27.5698 40.7516 30.5191 38.4853 32.7376C38.3982 32.8224 38.2849 32.8651 38.1711 32.8651Z" fill="url(#paint3_linear_63_465)"/>
<path d="M21.8289 32.8651C21.7151 32.8651 21.6013 32.8224 21.5147 32.7376C19.2484 30.5191 18 27.5698 18 24.4326C18 21.2954 19.2484 18.3461 21.5147 16.1276C21.6884 15.9575 21.9693 15.9575 22.1431 16.1276C22.3169 16.2976 22.3169 16.5726 22.1431 16.7427C20.0449 18.7967 18.8889 21.5277 18.8889 24.4326C18.8889 27.3375 20.0449 30.0685 22.1431 32.1225C22.3169 32.2926 22.3169 32.5675 22.1431 32.7376C22.0564 32.8224 21.9427 32.8651 21.8289 32.8651Z" fill="url(#paint4_linear_63_465)"/>
<path d="M36.2854 31.0198C36.1716 31.0198 36.0578 30.9772 35.9711 30.8923C35.7974 30.7223 35.7974 30.4473 35.9711 30.2773C37.5658 28.716 38.4445 26.6402 38.4445 24.4326C38.4445 22.225 37.5658 20.1491 35.9711 18.5879C35.7974 18.4178 35.7974 18.1429 35.9711 17.9728C36.1449 17.8027 36.4258 17.8027 36.5996 17.9728C40.2387 21.5346 40.2387 27.3301 36.5996 30.8919C36.5129 30.9772 36.3991 31.0198 36.2854 31.0198Z" fill="url(#paint5_linear_63_465)"/>
<path d="M23.7147 31.0198C23.6009 31.0198 23.4871 30.9772 23.4004 30.8923C19.7613 27.3306 19.7613 21.5351 23.4004 17.9733C23.5742 17.8032 23.8551 17.8032 24.0289 17.9733C24.2027 18.1434 24.2027 18.4183 24.0289 18.5884C22.4342 20.1491 21.5555 22.225 21.5555 24.4326C21.5555 26.6402 22.4342 28.716 24.0289 30.2773C24.2027 30.4473 24.2027 30.7223 24.0289 30.8923C23.9422 30.9772 23.8284 31.0198 23.7147 31.0198Z" fill="url(#paint6_linear_63_465)"/>
<path d="M34.3996 29.1737C34.2858 29.1737 34.172 29.131 34.0854 29.0462C33.9116 28.8761 33.9116 28.6012 34.0854 28.4311C36.3378 26.2265 36.3378 22.6386 34.0854 20.4336C33.9116 20.2635 33.9116 19.9886 34.0854 19.8185C34.2591 19.6485 34.54 19.6485 34.7138 19.8185C37.3129 22.3629 37.3129 26.5019 34.7138 29.0462C34.6271 29.1315 34.5134 29.1737 34.3996 29.1737Z" fill="url(#paint7_linear_63_465)"/>
<path d="M25.6005 29.1737C25.4867 29.1737 25.3729 29.131 25.2862 29.0462C22.6871 26.5019 22.6871 22.3629 25.2862 19.8185C25.46 19.6485 25.7409 19.6485 25.9147 19.8185C26.0885 19.9886 26.0885 20.2635 25.9147 20.4336C23.6622 22.6382 23.6622 26.2261 25.9147 28.4311C26.0885 28.6012 26.0885 28.8761 25.9147 29.0462C25.8276 29.1315 25.7138 29.1737 25.6005 29.1737Z" fill="url(#paint8_linear_63_465)"/>
<path d="M30 28.3476C27.832 28.3476 26 26.555 26 24.4326C26 22.3102 27.832 20.5176 30 20.5176C32.168 20.5176 34 22.3102 34 24.4326C34 26.555 32.168 28.3476 30 28.3476ZM30 21.3876C28.3138 21.3876 26.8889 22.7822 26.8889 24.4326C26.8889 26.083 28.3138 27.4776 30 27.4776C31.6862 27.4776 33.1111 26.083 33.1111 24.4326C33.1111 22.7822 31.6862 21.3876 30 21.3876Z" fill="url(#paint9_linear_63_465)"/>
<path d="M95.8413 15.0005C95.5031 15.0177 95.1877 15.348 95.0998 15.777L91.3672 32.5771C91.2145 33.1171 91.474 33.792 91.8957 33.9515C92.3174 34.1109 92.8106 33.7206 92.9002 33.1567L96.6329 16.3567C96.7809 15.7206 96.3478 14.9785 95.8413 15.0005ZM89.2259 18.1505C89.062 18.1459 88.8986 18.2472 88.7759 18.3255L82.3771 23.5755C82.1476 23.7631 82 24.112 82 24.4669C82 24.8218 82.1476 25.1707 82.3771 25.3583L88.7759 30.6083C89.1315 30.9004 89.6574 30.7414 89.8799 30.2747C90.1024 29.8079 89.9813 29.1176 89.6258 28.8255L84.3101 24.4724L89.6258 20.1083C89.9268 19.8784 90.0864 19.3701 89.9962 18.9286C89.906 18.4871 89.5741 18.1518 89.2259 18.1505ZM98.7658 18.1614C98.424 18.1749 98.1037 18.5089 98.0164 18.9429C97.9291 19.377 98.082 19.875 98.3742 20.1083L103.69 24.4724L98.3742 28.8255C98.0187 29.1176 97.8976 29.8079 98.1201 30.2747C98.3426 30.7414 98.8685 30.9004 99.2241 30.6083L105.623 25.3583C105.852 25.1707 106 24.8218 106 24.4669C106 24.112 105.852 23.7631 105.623 23.5755L99.2241 18.3255C99.0885 18.212 98.9265 18.154 98.7658 18.1614Z" fill="url(#paint10_linear_63_465)"/>
<path d="M170 28.3133V24.4401C170 24.2533 169.926 24.0742 169.794 23.9422C169.662 23.8101 169.482 23.7359 169.296 23.7359H167.218V23.3063C167.218 21.9055 166.662 20.5621 165.671 19.5716C164.681 18.5811 163.337 18.0247 161.937 18.0247H160.391C158.99 18.0247 157.647 18.5811 156.656 19.5716C155.666 20.5621 155.109 21.9055 155.109 23.3063V23.7359H149.961V20.2535L151.183 18.9225C151.652 19.2013 152.204 19.3037 152.742 19.2111C153.279 19.1185 153.766 18.8371 154.114 18.4176C154.462 17.998 154.65 17.4679 154.642 16.9227C154.634 16.3775 154.432 15.853 154.071 15.4436C153.711 15.0342 153.217 14.767 152.677 14.6899C152.137 14.6128 151.587 14.7309 151.127 15.0231C150.667 15.3152 150.326 15.7622 150.165 16.2834C150.005 16.8047 150.037 17.3659 150.253 17.8662L148.739 19.5176C148.619 19.648 148.552 19.819 148.553 19.9965V23.7359H146.704C146.517 23.7359 146.338 23.8101 146.206 23.9422C146.074 24.0742 146 24.2533 146 24.4401V28.3133C146 28.5001 146.074 28.6792 146.206 28.8113C146.338 28.9434 146.517 29.0175 146.704 29.0175H146.905L149.549 37.9541C149.593 38.0997 149.682 38.2275 149.804 38.3182C149.925 38.4089 150.073 38.4579 150.225 38.4576H165.775C165.926 38.4579 166.074 38.4089 166.196 38.3182C166.318 38.2275 166.407 38.0997 166.451 37.9541L169.095 29.0316H169.296C169.389 29.0317 169.482 29.013 169.568 28.9767C169.655 28.9404 169.733 28.8873 169.799 28.8204C169.864 28.7535 169.916 28.6742 169.95 28.5871C169.985 28.5001 170.002 28.407 170 28.3133ZM152.366 16.0704C152.542 16.0704 152.713 16.1225 152.859 16.22C153.005 16.3175 153.119 16.4561 153.186 16.6182C153.253 16.7803 153.271 16.9587 153.236 17.1309C153.202 17.303 153.118 17.4611 152.994 17.5852C152.869 17.7093 152.711 17.7938 152.539 17.828C152.367 17.8623 152.189 17.8447 152.027 17.7775C151.864 17.7104 151.726 17.5967 151.628 17.4507C151.531 17.3048 151.479 17.1333 151.479 16.9578C151.48 16.7227 151.574 16.4976 151.74 16.3314C151.906 16.1652 152.131 16.0714 152.366 16.0704ZM156.525 23.3063C156.525 22.2791 156.933 21.2939 157.659 20.5675C158.385 19.8412 159.371 19.4331 160.398 19.4331H161.951C162.978 19.4331 163.963 19.8412 164.689 20.5675C165.416 21.2939 165.824 22.2791 165.824 23.3063V23.7359H156.525V23.3063ZM147.405 25.1443H168.591V27.6091H147.408L147.405 25.1443ZM165.25 37.0351H150.75L148.373 29.0175H167.627L165.25 37.0351Z" fill="url(#paint11_linear_63_465)"/>
<path d="M164.958 13.7887C164.958 13.0394 164.735 12.3069 164.319 11.6838C163.903 11.0608 163.311 10.5752 162.619 10.2884C161.927 10.0016 161.165 9.92661 160.43 10.0728C159.695 10.219 159.02 10.5798 158.49 11.1097C157.96 11.6396 157.599 12.3146 157.453 13.0496C157.307 13.7845 157.382 14.5463 157.669 15.2386C157.955 15.9309 158.441 16.5226 159.064 16.9389C159.687 17.3552 160.42 17.5774 161.169 17.5774C162.174 17.5765 163.137 17.177 163.847 16.4667C164.557 15.7564 164.957 14.7933 164.958 13.7887ZM158.789 13.7887C158.789 13.3179 158.928 12.8577 159.19 12.4663C159.451 12.0749 159.823 11.7698 160.258 11.5896C160.693 11.4095 161.172 11.3623 161.633 11.4542C162.095 11.546 162.519 11.7727 162.852 12.1056C163.185 12.4385 163.412 12.8626 163.503 13.3243C163.595 13.7861 163.548 14.2647 163.368 14.6996C163.188 15.1345 162.883 15.5063 162.491 15.7678C162.1 16.0294 161.64 16.169 161.169 16.169C160.538 16.1681 159.933 15.917 159.487 15.4708C159.041 15.0246 158.79 14.4197 158.789 13.7887Z" fill="url(#paint12_linear_63_465)"/>
<path d="M219.963 164.61C219.585 162.765 218.539 161.17 217.016 160.119L215.397 159.001C215.104 158.798 214.762 158.691 214.408 158.691C214.044 158.691 213.692 158.806 213.398 159.015V153.616C213.398 152.791 212.851 152.091 212.067 151.913C211.945 151.885 211.82 151.871 211.696 151.871C210.761 151.871 210 152.653 210 153.616V160.987C210 161.985 210.297 162.942 210.86 163.756L214.357 168.815C214.472 168.981 214.658 169.08 214.856 169.08H220.122C220.122 169.08 220.123 169.08 220.124 169.08C220.462 169.08 220.737 168.798 220.737 168.451C220.737 168.387 220.727 168.324 220.71 168.266L219.963 164.61ZM215.173 167.822L211.859 163.027C211.444 162.428 211.225 161.722 211.225 160.987V153.616C211.225 153.311 211.502 153.072 211.802 153.141C212.021 153.19 212.173 153.386 212.173 153.616V159.464C212.173 160.333 212.487 161.166 213.056 161.81C213.077 161.835 213.098 161.859 213.12 161.883C213.457 162.25 213.856 162.685 214.221 163.084L214.224 163.087C214.225 163.087 214.225 163.088 214.226 163.089L215.325 164.29C215.557 164.543 215.944 164.555 216.191 164.318C216.437 164.08 216.45 163.682 216.218 163.429C216.204 163.414 215.704 162.866 215.116 162.225L213.988 160.991L213.978 160.981C213.786 160.735 213.793 160.375 213.998 160.138C214.174 159.934 214.492 159.891 214.714 160.044L216.333 161.162C217.589 162.03 218.453 163.346 218.764 164.868L219.368 167.822H215.173Z" fill="url(#paint13_linear_63_465)"/>
<path d="M232.304 151.871C232.18 151.871 232.055 151.885 231.933 151.912C231.149 152.091 230.602 152.791 230.602 153.616V159.015C230.308 158.806 229.956 158.691 229.592 158.691C229.239 158.691 228.897 158.798 228.603 159L226.984 160.119C225.461 161.17 224.414 162.765 224.038 164.61L223.279 168.322C223.241 168.507 223.287 168.7 223.403 168.847C223.519 168.995 223.694 169.08 223.879 169.08H229.144C229.342 169.08 229.528 168.981 229.643 168.815L233.14 163.756C233.703 162.943 234 161.986 234 160.987V153.616C234 152.654 233.239 151.871 232.304 151.871ZM232.775 160.987C232.775 161.723 232.556 162.429 232.142 163.027L228.827 167.822H224.633L225.237 164.868C225.547 163.346 226.411 162.03 227.668 161.162L229.287 160.044C229.509 159.891 229.826 159.934 230.003 160.138C230.209 160.378 230.218 160.729 230.025 160.978L228.42 162.732C228.418 162.734 228.416 162.736 228.415 162.737L227.782 163.429C227.551 163.682 227.563 164.08 227.809 164.318C228.056 164.556 228.443 164.543 228.675 164.29L229.307 163.599C229.766 163.098 230.39 162.417 230.88 161.883C230.904 161.857 230.927 161.831 230.949 161.804C231.515 161.161 231.827 160.33 231.827 159.464V153.616C231.827 153.386 231.979 153.19 232.198 153.14C232.233 153.132 232.269 153.128 232.304 153.128C232.564 153.128 232.775 153.347 232.775 153.616L232.775 160.987Z" fill="url(#paint14_linear_63_465)"/>
<path d="M214.932 157.385H216.906C216.906 157.393 216.905 157.4 216.905 157.408V159.117C216.905 159.465 217.179 159.746 217.517 159.746H226.477C226.815 159.746 227.09 159.465 227.09 159.117V157.409C227.09 157.402 227.089 157.395 227.089 157.387H229.068C229.406 157.387 229.68 157.106 229.68 156.758V155.871C229.68 154.761 228.946 153.806 227.895 153.548L227.231 153.385C227.743 152.967 228.072 152.323 228.072 151.601V150.501C228.072 149.243 227.076 148.22 225.851 148.22C225.372 148.22 224.929 148.378 224.566 148.644C224.101 147.671 223.127 147 222.003 147C220.878 147 219.903 147.672 219.439 148.645C219.075 148.377 218.63 148.217 218.149 148.217C216.924 148.217 215.927 149.241 215.927 150.499V151.598C215.927 152.321 216.257 152.965 216.769 153.383L216.104 153.546C215.054 153.804 214.32 154.759 214.32 155.868V156.756C214.32 157.104 214.594 157.385 214.932 157.385ZM225.865 158.488H218.13V157.408C218.13 156.563 218.689 155.834 219.489 155.637L220.638 155.354L221.438 157.223C221.536 157.452 221.756 157.599 221.999 157.599C222.242 157.599 222.462 157.452 222.56 157.223L223.359 155.357L224.503 155.639C225.305 155.835 225.865 156.563 225.865 157.409L225.865 158.488ZM217.671 152.496C217.362 152.322 217.152 151.985 217.152 151.598V151.525H217.649C218.161 151.525 218.667 151.434 219.145 151.258V151.598C219.145 151.985 218.936 152.322 218.627 152.496L217.671 152.496ZM226.847 151.601C226.847 151.987 226.638 152.324 226.329 152.498H225.373C225.065 152.324 224.855 151.987 224.855 151.601V151.52C224.855 151.5 224.856 151.481 224.856 151.462V151.261C225.334 151.436 225.839 151.528 226.351 151.528H226.848L226.847 151.601ZM221.606 154.363C221.735 154.382 221.868 154.392 222.003 154.392C222.134 154.392 222.264 154.382 222.391 154.364V154.491L221.999 155.407L221.606 154.488V154.363ZM224.065 153.484C224.143 153.4 224.217 153.311 224.286 153.217C224.344 153.277 224.406 153.332 224.47 153.384L224.065 153.484ZM223.63 150.899V151.491C223.615 152.4 222.891 153.134 222.003 153.134C221.105 153.134 220.374 152.384 220.374 151.462V151.113H220.857C221.592 151.113 222.291 150.847 222.842 150.368L223.63 150.844L223.63 150.899ZM219.716 153.213C219.785 153.308 219.86 153.397 219.939 153.483L219.53 153.382C219.595 153.329 219.658 153.273 219.716 153.213ZM226.432 154.483L227.61 154.772C228.108 154.894 228.455 155.346 228.455 155.871V156.129H226.82C226.492 155.39 225.885 154.804 225.116 154.519L225.249 154.486C225.259 154.484 225.269 154.482 225.279 154.479C225.555 154.408 225.739 154.155 225.743 153.876C225.779 153.878 225.814 153.882 225.851 153.882C225.888 153.882 225.925 153.878 225.962 153.876C225.964 154.165 226.158 154.415 226.432 154.483ZM225.851 149.478C226.323 149.478 226.72 149.817 226.822 150.27H226.351C225.884 150.27 225.424 150.166 225.002 149.966C225.177 149.673 225.492 149.478 225.851 149.478ZM222.003 148.258C222.69 148.258 223.279 148.697 223.518 149.317L223.055 149.038C222.797 148.882 222.467 148.941 222.275 149.176C221.923 149.608 221.406 149.856 220.857 149.856H220.376C220.414 148.968 221.129 148.258 222.003 148.258ZM218.149 149.475C218.507 149.475 218.823 149.671 218.998 149.964C218.576 150.163 218.116 150.268 217.649 150.268H217.178C217.28 149.814 217.677 149.475 218.149 149.475ZM215.545 155.868C215.545 155.344 215.892 154.892 216.389 154.769L217.568 154.48C217.842 154.413 218.036 154.163 218.038 153.874C218.075 153.876 218.111 153.88 218.149 153.88C218.185 153.88 218.221 153.876 218.257 153.874C218.26 154.134 218.421 154.376 218.675 154.463C218.7 154.471 218.724 154.478 218.749 154.483L218.881 154.516C218.111 154.801 217.503 155.388 217.175 156.127H215.545L215.545 155.868Z" fill="url(#paint15_linear_63_465)"/>
<path d="M38.1711 166.865C38.0573 166.865 37.9436 166.822 37.8569 166.738C37.6831 166.568 37.6831 166.293 37.8569 166.123C39.9551 164.068 41.1111 161.338 41.1111 158.433C41.1111 155.528 39.9551 152.797 37.8569 150.743C37.6831 150.573 37.6831 150.298 37.8569 150.128C38.0307 149.957 38.3115 149.957 38.4853 150.128C40.7516 152.346 42 155.295 42 158.433C42 161.57 40.7516 164.519 38.4853 166.738C38.3982 166.822 38.2849 166.865 38.1711 166.865Z" fill="url(#paint16_linear_63_465)"/>
<path d="M21.8289 166.865C21.7151 166.865 21.6013 166.822 21.5147 166.738C19.2484 164.519 18 161.57 18 158.433C18 155.295 19.2484 152.346 21.5147 150.128C21.6884 149.957 21.9693 149.957 22.1431 150.128C22.3169 150.298 22.3169 150.573 22.1431 150.743C20.0449 152.797 18.8889 155.528 18.8889 158.433C18.8889 161.338 20.0449 164.068 22.1431 166.123C22.3169 166.293 22.3169 166.568 22.1431 166.738C22.0564 166.822 21.9427 166.865 21.8289 166.865Z" fill="url(#paint17_linear_63_465)"/>
<path d="M36.2854 165.02C36.1716 165.02 36.0578 164.977 35.9711 164.892C35.7974 164.722 35.7974 164.447 35.9711 164.277C37.5658 162.716 38.4445 160.64 38.4445 158.433C38.4445 156.225 37.5658 154.149 35.9711 152.588C35.7974 152.418 35.7974 152.143 35.9711 151.973C36.1449 151.803 36.4258 151.803 36.5996 151.973C40.2387 155.535 40.2387 161.33 36.5996 164.892C36.5129 164.977 36.3991 165.02 36.2854 165.02Z" fill="url(#paint18_linear_63_465)"/>
<path d="M23.7147 165.02C23.6009 165.02 23.4871 164.977 23.4004 164.892C19.7613 161.331 19.7613 155.535 23.4004 151.973C23.5742 151.803 23.8551 151.803 24.0289 151.973C24.2027 152.143 24.2027 152.418 24.0289 152.588C22.4342 154.149 21.5555 156.225 21.5555 158.433C21.5555 160.64 22.4342 162.716 24.0289 164.277C24.2027 164.447 24.2027 164.722 24.0289 164.892C23.9422 164.977 23.8284 165.02 23.7147 165.02Z" fill="url(#paint19_linear_63_465)"/>
<path d="M34.3996 163.174C34.2858 163.174 34.172 163.131 34.0854 163.046C33.9116 162.876 33.9116 162.601 34.0854 162.431C36.3378 160.227 36.3378 156.639 34.0854 154.434C33.9116 154.264 33.9116 153.989 34.0854 153.819C34.2591 153.648 34.54 153.648 34.7138 153.819C37.3129 156.363 37.3129 160.502 34.7138 163.046C34.6271 163.131 34.5134 163.174 34.3996 163.174Z" fill="url(#paint20_linear_63_465)"/>
<path d="M25.6005 163.174C25.4867 163.174 25.3729 163.131 25.2862 163.046C22.6871 160.502 22.6871 156.363 25.2862 153.819C25.46 153.648 25.7409 153.648 25.9147 153.819C26.0885 153.989 26.0885 154.264 25.9147 154.434C23.6622 156.638 23.6622 160.226 25.9147 162.431C26.0885 162.601 26.0885 162.876 25.9147 163.046C25.8276 163.131 25.7138 163.174 25.6005 163.174Z" fill="url(#paint21_linear_63_465)"/>
<path d="M30 162.348C27.832 162.348 26 160.555 26 158.433C26 156.31 27.832 154.518 30 154.518C32.168 154.518 34 156.31 34 158.433C34 160.555 32.168 162.348 30 162.348ZM30 155.388C28.3138 155.388 26.8889 156.782 26.8889 158.433C26.8889 160.083 28.3138 161.478 30 161.478C31.6862 161.478 33.1111 160.083 33.1111 158.433C33.1111 156.782 31.6862 155.388 30 155.388Z" fill="url(#paint22_linear_63_465)"/>
<path d="M95.8413 149C95.5031 149.018 95.1877 149.348 95.0998 149.777L91.3672 166.577C91.2145 167.117 91.474 167.792 91.8957 167.951C92.3174 168.111 92.8106 167.721 92.9002 167.157L96.6329 150.357C96.7809 149.721 96.3478 148.978 95.8413 149ZM89.2259 152.15C89.062 152.146 88.8986 152.247 88.7759 152.325L82.3771 157.575C82.1476 157.763 82 158.112 82 158.467C82 158.822 82.1476 159.171 82.3771 159.358L88.7759 164.608C89.1315 164.9 89.6574 164.741 89.8799 164.275C90.1024 163.808 89.9813 163.118 89.6258 162.825L84.3101 158.472L89.6258 154.108C89.9268 153.878 90.0864 153.37 89.9962 152.929C89.906 152.487 89.5741 152.152 89.2259 152.15ZM98.7658 152.161C98.424 152.175 98.1037 152.509 98.0164 152.943C97.9291 153.377 98.082 153.875 98.3742 154.108L103.69 158.472L98.3742 162.825C98.0187 163.118 97.8976 163.808 98.1201 164.275C98.3426 164.741 98.8685 164.9 99.2241 164.608L105.623 159.358C105.852 159.171 106 158.822 106 158.467C106 158.112 105.852 157.763 105.623 157.575L99.2241 152.325C99.0885 152.212 98.9265 152.154 98.7658 152.161Z" fill="url(#paint23_linear_63_465)"/>
<path d="M170 162.313V158.44C170 158.253 169.926 158.074 169.794 157.942C169.662 157.81 169.482 157.736 169.296 157.736H167.218V157.306C167.218 155.906 166.662 154.562 165.671 153.572C164.681 152.581 163.337 152.025 161.937 152.025H160.391C158.99 152.025 157.647 152.581 156.656 153.572C155.666 154.562 155.109 155.906 155.109 157.306V157.736H149.961V154.254L151.183 152.923C151.652 153.201 152.204 153.304 152.742 153.211C153.279 153.119 153.766 152.837 154.114 152.418C154.462 151.998 154.65 151.468 154.642 150.923C154.634 150.377 154.432 149.853 154.071 149.444C153.711 149.034 153.217 148.767 152.677 148.69C152.137 148.613 151.587 148.731 151.127 149.023C150.667 149.315 150.326 149.762 150.165 150.283C150.005 150.805 150.037 151.366 150.253 151.866L148.739 153.518C148.619 153.648 148.552 153.819 148.553 153.996V157.736H146.704C146.517 157.736 146.338 157.81 146.206 157.942C146.074 158.074 146 158.253 146 158.44V162.313C146 162.5 146.074 162.679 146.206 162.811C146.338 162.943 146.517 163.018 146.704 163.018H146.905L149.549 171.954C149.593 172.1 149.682 172.227 149.804 172.318C149.925 172.409 150.073 172.458 150.225 172.458H165.775C165.926 172.458 166.074 172.409 166.196 172.318C166.318 172.227 166.407 172.1 166.451 171.954L169.095 163.032H169.296C169.389 163.032 169.482 163.013 169.568 162.977C169.655 162.94 169.733 162.887 169.799 162.82C169.864 162.754 169.916 162.674 169.95 162.587C169.985 162.5 170.002 162.407 170 162.313ZM152.366 150.07C152.542 150.07 152.713 150.122 152.859 150.22C153.005 150.317 153.119 150.456 153.186 150.618C153.253 150.78 153.271 150.959 153.236 151.131C153.202 151.303 153.118 151.461 152.994 151.585C152.869 151.709 152.711 151.794 152.539 151.828C152.367 151.862 152.189 151.845 152.027 151.778C151.864 151.71 151.726 151.597 151.628 151.451C151.531 151.305 151.479 151.133 151.479 150.958C151.48 150.723 151.574 150.498 151.74 150.331C151.906 150.165 152.131 150.071 152.366 150.07ZM156.525 157.306C156.525 156.279 156.933 155.294 157.659 154.568C158.385 153.841 159.371 153.433 160.398 153.433H161.951C162.978 153.433 163.963 153.841 164.689 154.568C165.416 155.294 165.824 156.279 165.824 157.306V157.736H156.525V157.306ZM147.405 159.144H168.591V161.609H147.408L147.405 159.144ZM165.25 171.035H150.75L148.373 163.018H167.627L165.25 171.035Z" fill="url(#paint24_linear_63_465)"/>
<path d="M164.958 147.789C164.958 147.039 164.735 146.307 164.319 145.684C163.903 145.061 163.311 144.575 162.619 144.288C161.927 144.002 161.165 143.927 160.43 144.073C159.695 144.219 159.02 144.58 158.49 145.11C157.96 145.64 157.599 146.315 157.453 147.05C157.307 147.785 157.382 148.546 157.669 149.239C157.955 149.931 158.441 150.523 159.064 150.939C159.687 151.355 160.42 151.577 161.169 151.577C162.174 151.576 163.137 151.177 163.847 150.467C164.557 149.756 164.957 148.793 164.958 147.789ZM158.789 147.789C158.789 147.318 158.928 146.858 159.19 146.466C159.451 146.075 159.823 145.77 160.258 145.59C160.693 145.409 161.172 145.362 161.633 145.454C162.095 145.546 162.519 145.773 162.852 146.106C163.185 146.438 163.412 146.863 163.503 147.324C163.595 147.786 163.548 148.265 163.368 148.7C163.188 149.135 162.883 149.506 162.491 149.768C162.1 150.029 161.64 150.169 161.169 150.169C160.538 150.168 159.933 149.917 159.487 149.471C159.041 149.025 158.79 148.42 158.789 147.789Z" fill="url(#paint25_linear_63_465)"/>
<path d="M11.6379 98.7146C11.8634 98.5711 12 98.3224 12 98.055V88.234C12 87.9685 11.8652 87.7212 11.6422 87.5771C11.4191 87.433 11.1381 87.4121 10.8963 87.5216L5.47298 89.972C5.19306 90.0985 5.01321 90.3773 5.01321 90.6845V95.5189C5.01321 95.8223 5.18879 96.0985 5.46391 96.2271L10.887 98.7632C10.9924 98.8125 11.1053 98.8368 11.2181 98.8368C11.3644 98.8368 11.5103 98.7955 11.6379 98.7146ZM10.4363 96.8262L6.57665 95.0212V91.1891L10.4363 89.4452V96.8262ZM-12 91.0954V95.1936C-12 97.4183 -10.19 99.2283 -7.96531 99.2283H-0.145964C2.07872 99.2283 3.88873 97.4183 3.88873 95.1936V91.0954C3.88873 88.8707 2.07872 87.0607 -0.145964 87.0607H-7.96504C-10.19 87.0607 -12 88.8707 -12 91.0954ZM-10.4363 91.0954C-10.4363 89.7329 -9.32782 88.6242 -7.96504 88.6242H-0.145697C1.21681 88.6242 2.32555 89.7326 2.32555 91.0954V95.1936C2.32555 96.5561 1.21708 97.6648 -0.145697 97.6648H-7.96504C-9.32755 97.6648 -10.4363 96.5564 -10.4363 95.1936V91.0954ZM-8.71061 94.63V91.659C-8.71061 91.2272 -8.36051 90.8771 -7.92875 90.8771C-7.497 90.8771 -7.1469 91.2272 -7.1469 91.659V94.63C-7.1469 95.0618 -7.497 95.4119 -7.92875 95.4119C-8.36077 95.4119 -8.71061 95.0618 -8.71061 94.63ZM-7.46284 86.0214C-7.8946 86.0214 -8.2447 85.6713 -8.2447 85.2395C-8.2447 84.8077 -7.8946 84.4576 -7.46284 84.4576H-1.99039C-1.55864 84.4576 -1.20854 84.8077 -1.20854 85.2395C-1.20854 85.6713 -1.55864 86.0214 -1.99039 86.0214H-7.46284Z" fill="url(#paint26_linear_63_465)"/>
<path d="M267.638 98.7146C267.863 98.5711 268 98.3224 268 98.055V88.234C268 87.9685 267.865 87.7212 267.642 87.5771C267.419 87.433 267.138 87.4121 266.896 87.5216L261.473 89.972C261.193 90.0985 261.013 90.3773 261.013 90.6845V95.5189C261.013 95.8223 261.189 96.0985 261.464 96.2271L266.887 98.7632C266.992 98.8125 267.105 98.8368 267.218 98.8368C267.364 98.8368 267.51 98.7955 267.638 98.7146ZM266.436 96.8262L262.577 95.0212V91.1891L266.436 89.4452V96.8262ZM244 91.0954V95.1936C244 97.4183 245.81 99.2283 248.035 99.2283H255.854C258.079 99.2283 259.889 97.4183 259.889 95.1936V91.0954C259.889 88.8707 258.079 87.0607 255.854 87.0607H248.035C245.81 87.0607 244 88.8707 244 91.0954ZM245.564 91.0954C245.564 89.7329 246.672 88.6242 248.035 88.6242H255.854C257.217 88.6242 258.326 89.7326 258.326 91.0954V95.1936C258.326 96.5561 257.217 97.6648 255.854 97.6648H248.035C246.672 97.6648 245.564 96.5564 245.564 95.1936V91.0954ZM247.289 94.63V91.659C247.289 91.2272 247.639 90.8771 248.071 90.8771C248.503 90.8771 248.853 91.2272 248.853 91.659V94.63C248.853 95.0618 248.503 95.4119 248.071 95.4119C247.639 95.4119 247.289 95.0618 247.289 94.63ZM248.537 86.0214C248.105 86.0214 247.755 85.6713 247.755 85.2395C247.755 84.8077 248.105 84.4576 248.537 84.4576H254.01C254.441 84.4576 254.791 84.8077 254.791 85.2395C254.791 85.6713 254.441 86.0214 254.01 86.0214H248.537Z" fill="url(#paint27_linear_63_465)"/>
<path d="M48.3866 83.7077C48.6692 83.9903 48.9517 84.2729 49.2317 84.5528C49.9078 85.2289 50.5865 85.9076 51.2625 86.5837C52.0812 87.4023 52.9026 88.2237 53.7212 89.0424C54.429 89.7501 55.1394 90.4605 55.8472 91.1683C56.1905 91.5116 56.5312 91.8628 56.8798 92.2009C56.8851 92.2062 56.8903 92.2114 56.8956 92.2167C56.8956 91.5935 56.8956 90.9729 56.8956 90.3496C56.613 90.6322 56.3305 90.9148 56.0505 91.1947C55.3745 91.8708 54.6957 92.5495 54.0197 93.2256C53.201 94.0442 52.3797 94.8656 51.561 95.6843C50.8532 96.392 50.1428 97.1024 49.435 97.8102C49.0917 98.1535 48.7405 98.4942 48.4024 98.8428C48.3972 98.8481 48.3919 98.8534 48.3866 98.8586C48.1463 99.099 48.001 99.4528 48.001 99.7935C48.001 100.118 48.1436 100.504 48.3866 100.728C48.6375 100.958 48.9676 101.13 49.3215 101.114C49.6727 101.098 50.0028 100.979 50.2564 100.728C50.5389 100.446 50.8215 100.163 51.1014 99.8833C51.7775 99.2072 52.4562 98.5285 53.1323 97.8524C53.951 97.0338 54.7723 96.2124 55.591 95.3938C56.2988 94.686 57.0092 93.9756 57.7169 93.2678C58.0603 92.9245 58.4115 92.5838 58.7495 92.2352C58.7548 92.2299 58.7601 92.2247 58.7654 92.2194C59.2698 91.715 59.2698 90.8567 58.7654 90.3522C58.4828 90.0697 58.2002 89.7871 57.9203 89.5072C57.2442 88.8311 56.5655 88.1524 55.8894 87.4763C55.0707 86.6576 54.2494 85.8363 53.4307 85.0176C52.723 84.3098 52.0126 83.5994 51.3048 82.8917C50.9615 82.5483 50.6208 82.1971 50.2722 81.8591C50.2669 81.8538 50.2616 81.8485 50.2564 81.8432C50.016 81.6029 49.6621 81.4576 49.3215 81.4576C48.9966 81.4576 48.6111 81.6003 48.3866 81.8432C48.1568 82.0941 47.9852 82.4242 48.001 82.7781C48.0169 83.1241 48.1357 83.4542 48.3866 83.7077Z" fill="url(#paint28_linear_63_465)"/>
<path d="M57.2389 101.117C57.6826 101.117 58.1289 101.117 58.5726 101.117C59.6448 101.117 60.717 101.117 61.7892 101.117C63.0833 101.117 64.3747 101.117 65.6687 101.117C66.7858 101.117 67.9029 101.117 69.0227 101.117C69.5667 101.117 70.1107 101.125 70.6548 101.117C70.6627 101.117 70.6706 101.117 70.6785 101.117C71.0166 101.117 71.3731 100.969 71.6134 100.731C71.8432 100.501 72.0148 100.126 71.999 99.7962C71.9831 99.4555 71.8722 99.1016 71.6134 98.8613C71.3546 98.6236 71.0377 98.4757 70.6785 98.4757C70.2349 98.4757 69.7885 98.4757 69.3449 98.4757C68.2727 98.4757 67.2004 98.4757 66.1282 98.4757C64.8342 98.4757 63.5428 98.4757 62.2487 98.4757C61.1316 98.4757 60.0145 98.4757 58.8948 98.4757C58.3507 98.4757 57.8067 98.4678 57.2627 98.4757C57.2548 98.4757 57.2468 98.4757 57.2389 98.4757C56.9009 98.4757 56.5443 98.6236 56.304 98.8613C56.0743 99.091 55.9026 99.466 55.9185 99.7962C55.9343 100.137 56.0452 100.491 56.304 100.731C56.5628 100.966 56.8824 101.117 57.2389 101.117Z" fill="url(#paint29_linear_63_465)"/>
<path d="M140.567 88.9576H135.8C135.685 88.9577 135.575 89.0033 135.494 89.0846C135.412 89.1658 135.367 89.2761 135.367 89.391V90.691H132.465L128.674 88.1638C128.603 88.1163 128.519 88.091 128.433 88.091C128.348 88.091 128.264 88.1163 128.193 88.1638L124.402 90.691H121.622L121.92 89.4961C121.936 89.4322 121.938 89.3655 121.924 89.3011C121.91 89.2367 121.882 89.1762 121.842 89.1243C121.801 89.0724 121.749 89.0304 121.69 89.0015C121.631 88.9727 121.566 88.9576 121.5 88.9576H118.9V85.491C118.9 85.3761 118.946 85.2659 119.027 85.1847C119.108 85.1035 119.218 85.0578 119.333 85.0576H125.01C125.111 85.5467 125.377 85.9861 125.764 86.3018C126.15 86.6176 126.634 86.7903 127.133 86.791H129.733C130.308 86.791 130.859 86.5627 131.265 86.1564C131.672 85.75 131.9 85.1989 131.9 84.6243C131.9 84.0497 131.672 83.4986 131.265 83.0922C130.859 82.6859 130.308 82.4576 129.733 82.4576H127.133C126.634 82.4583 126.15 82.6311 125.764 82.9468C125.377 83.2625 125.111 83.7019 125.01 84.191H119.333C118.989 84.1914 118.658 84.3285 118.415 84.5722C118.171 84.8159 118.034 85.1463 118.033 85.491V88.9576H116.3C116.203 88.9576 116.109 88.9899 116.033 89.0494C115.957 89.1089 115.903 89.1921 115.88 89.2859L115.013 92.7525C114.997 92.8164 114.996 92.8831 115.009 92.9475C115.023 93.012 115.051 93.0724 115.092 93.1243C115.132 93.1762 115.184 93.2182 115.243 93.2471C115.302 93.276 115.367 93.291 115.433 93.291H118.033V95.0243C118.034 95.369 118.171 95.6994 118.415 95.9431C118.658 96.1868 118.989 96.3239 119.333 96.3243H127.567C127.911 96.3239 128.242 96.1868 128.485 95.9431C128.729 95.6994 128.866 95.369 128.867 95.0243V93.9562L132.465 91.5576H135.367V92.8576C135.367 92.9726 135.412 93.0828 135.494 93.1641C135.575 93.2453 135.685 93.291 135.8 93.291H137.967V97.1669C137.632 97.0523 137.278 97.0051 136.925 97.0282C136.572 97.0513 136.227 97.1442 135.91 97.3015L135.173 97.6701C135.101 97.7061 135.04 97.7614 134.998 97.8298C134.956 97.8983 134.933 97.9772 134.933 98.0577V98.9243H131.423C131.323 98.4353 131.056 97.9959 130.67 97.6801C130.283 97.3644 129.799 97.1916 129.3 97.191H126.7C126.125 97.191 125.574 97.4193 125.168 97.8256C124.762 98.2319 124.533 98.783 124.533 99.3577C124.533 99.9323 124.762 100.483 125.168 100.89C125.574 101.296 126.125 101.524 126.7 101.524H129.3C129.799 101.524 130.283 101.351 130.67 101.035C131.056 100.719 131.323 100.28 131.423 99.791H134.933V101.091C134.933 101.206 134.979 101.316 135.06 101.397C135.142 101.479 135.252 101.524 135.367 101.524H140.567C140.682 101.524 140.792 101.479 140.873 101.397C140.954 101.316 141 101.206 141 101.091V97.6243C141 97.5585 140.985 97.4935 140.956 97.4343C140.927 97.3751 140.885 97.3233 140.833 97.2828C140.781 97.2423 140.721 97.2141 140.657 97.2004C140.592 97.1868 140.525 97.188 140.462 97.2039L139.528 97.4374C139.301 97.494 139.065 97.5057 138.833 97.4718V93.291H140.567C140.682 93.291 140.792 93.2453 140.873 93.1641C140.954 93.0828 141 92.9726 141 92.8576V89.391C141 89.2761 140.954 89.1658 140.873 89.0846C140.792 89.0033 140.682 88.9577 140.567 88.9576V88.9576ZM127.133 83.3243H129.733C130.078 83.3243 130.409 83.4613 130.653 83.7051C130.896 83.9489 131.033 84.2795 131.033 84.6243C131.033 84.9691 130.896 85.2998 130.653 85.5435C130.409 85.7873 130.078 85.9243 129.733 85.9243H127.133C126.789 85.9243 126.458 85.7873 126.214 85.5435C125.97 85.2998 125.833 84.9691 125.833 84.6243C125.833 84.2795 125.97 83.9489 126.214 83.7051C126.458 83.4613 126.789 83.3243 127.133 83.3243ZM116.638 89.8243H120.945L120.295 92.4243H115.988L116.638 89.8243ZM127.567 95.4577H119.333C119.218 95.4575 119.108 95.4118 119.027 95.3306C118.946 95.2493 118.9 95.1392 118.9 95.0243V93.291H120.633C120.73 93.291 120.824 93.2587 120.9 93.1992C120.976 93.1397 121.03 93.0565 121.054 92.9628L121.405 91.5576H124.402L128 93.9562V95.0243C128 95.1392 127.954 95.2493 127.873 95.3306C127.792 95.4118 127.682 95.4575 127.567 95.4577V95.4577ZM128.433 93.2035L125.315 91.1243L128.433 89.0451L131.552 91.1243L128.433 93.2035ZM129.3 100.658H126.7C126.355 100.658 126.025 100.521 125.781 100.277C125.537 100.033 125.4 99.7024 125.4 99.3577C125.4 99.0129 125.537 98.6822 125.781 98.4384C126.025 98.1946 126.355 98.0577 126.7 98.0577H129.3C129.645 98.0577 129.975 98.1946 130.219 98.4384C130.463 98.6822 130.6 99.0129 130.6 99.3577C130.6 99.7024 130.463 100.033 130.219 100.277C129.975 100.521 129.645 100.658 129.3 100.658ZM139.738 98.2782L140.133 98.1793V100.658H135.8V98.3255L136.298 98.0767C136.547 97.9528 136.822 97.8883 137.1 97.8883C137.378 97.8883 137.653 97.9528 137.902 98.0767C138.471 98.3606 139.122 98.4321 139.738 98.2782V98.2782ZM140.133 92.4243H136.233V89.8243H140.133V92.4243Z" fill="url(#paint30_linear_63_465)"/>
<path d="M191.5 94.6242C192.383 94.6242 192.667 94.9077 192.667 95.7909C192.667 98.2158 192.467 99.9477 192.074 100.939C191.802 101.624 191.59 101.624 191.5 101.624C191.335 101.624 191.131 101.624 190.877 100.955C190.516 100.004 190.333 98.2662 190.333 95.7909C190.333 94.9077 190.617 94.6242 191.5 94.6242ZM191.5 93.4575C190.211 93.4575 189.167 94.0409 189.167 95.7909C189.167 101.333 190.042 102.791 191.5 102.791C192.812 102.791 193.833 101.333 193.833 95.7909C193.833 94.0409 192.789 93.4575 191.5 93.4575Z" fill="url(#paint31_linear_63_465)"/>
<path d="M191.5 83.5409C187.956 83.5409 185.083 86.4138 185.083 89.9576C185.083 92.2188 186.254 94.2054 188.021 95.3481C188.063 94.8993 188.168 94.493 188.33 94.1322C187.069 93.1726 186.25 91.6609 186.25 89.9576C186.25 87.0628 188.605 84.7076 191.5 84.7076C194.395 84.7076 196.75 87.0628 196.75 89.9576C196.75 91.6609 195.931 93.1726 194.67 94.1325C194.832 94.4933 194.937 94.8993 194.979 95.3484C196.746 94.2054 197.917 92.2188 197.917 89.9576C197.917 86.4138 195.044 83.5409 191.5 83.5409Z" fill="url(#paint32_linear_63_465)"/>
<path d="M191.5 79.4576C185.701 79.4576 181 84.1587 181 89.9576C181 94.6202 184.04 98.5706 188.245 99.9408C188.185 99.5462 188.137 99.116 188.099 98.6467C184.63 97.284 182.167 93.9042 182.167 89.9576C182.167 84.8112 186.354 80.6243 191.5 80.6243C196.646 80.6243 200.833 84.8112 200.833 89.9576C200.833 93.9083 198.365 97.2907 194.891 98.6508C194.851 99.0961 194.797 99.5316 194.726 99.9504C198.946 98.5889 202 94.6307 202 89.9576C202 84.1587 197.299 79.4576 191.5 79.4576Z" fill="url(#paint33_linear_63_465)"/>
<path d="M191.5 88.7909C192.143 88.7909 192.667 89.3142 192.667 89.9576C192.667 90.601 192.143 91.1242 191.5 91.1242C190.857 91.1242 190.333 90.601 190.333 89.9576C190.333 89.3142 190.857 88.7909 191.5 88.7909ZM191.5 87.6242C190.211 87.6242 189.167 88.669 189.167 89.9576C189.167 91.2462 190.211 92.2909 191.5 92.2909C192.789 92.2909 193.833 91.2462 193.833 89.9576C193.833 88.669 192.789 87.6242 191.5 87.6242Z" fill="url(#paint34_linear_63_465)"/>
<path d="M11.6379 232.505C11.8634 232.362 12 232.113 12 231.846V222.025C12 221.759 11.8652 221.512 11.6422 221.368C11.4191 221.224 11.1381 221.203 10.8963 221.312L5.47298 223.763C5.19306 223.889 5.01321 224.168 5.01321 224.475V229.31C5.01321 229.613 5.18879 229.889 5.46391 230.018L10.887 232.554C10.9924 232.603 11.1053 232.628 11.2181 232.628C11.3644 232.628 11.5103 232.586 11.6379 232.505ZM10.4363 230.617L6.57665 228.812V224.98L10.4363 223.236V230.617ZM-12 224.886V228.984C-12 231.209 -10.19 233.019 -7.96531 233.019H-0.145964C2.07872 233.019 3.88873 231.209 3.88873 228.984V224.886C3.88873 222.662 2.07872 220.852 -0.145964 220.852H-7.96504C-10.19 220.852 -12 222.662 -12 224.886ZM-10.4363 224.886C-10.4363 223.524 -9.32782 222.415 -7.96504 222.415H-0.145697C1.21681 222.415 2.32555 223.523 2.32555 224.886V228.984C2.32555 230.347 1.21708 231.456 -0.145697 231.456H-7.96504C-9.32755 231.456 -10.4363 230.347 -10.4363 228.984V224.886ZM-8.71061 228.421V225.45C-8.71061 225.018 -8.36051 224.668 -7.92875 224.668C-7.497 224.668 -7.1469 225.018 -7.1469 225.45V228.421C-7.1469 228.853 -7.497 229.203 -7.92875 229.203C-8.36077 229.203 -8.71061 228.853 -8.71061 228.421ZM-7.46284 219.812C-7.8946 219.812 -8.2447 219.462 -8.2447 219.03C-8.2447 218.599 -7.8946 218.248 -7.46284 218.248H-1.99039C-1.55864 218.248 -1.20854 218.599 -1.20854 219.03C-1.20854 219.462 -1.55864 219.812 -1.99039 219.812H-7.46284Z" fill="url(#paint35_linear_63_465)"/>
<path d="M267.638 232.505C267.863 232.362 268 232.113 268 231.846V222.025C268 221.759 267.865 221.512 267.642 221.368C267.419 221.224 267.138 221.203 266.896 221.312L261.473 223.763C261.193 223.889 261.013 224.168 261.013 224.475V229.31C261.013 229.613 261.189 229.889 261.464 230.018L266.887 232.554C266.992 232.603 267.105 232.628 267.218 232.628C267.364 232.628 267.51 232.586 267.638 232.505ZM266.436 230.617L262.577 228.812V224.98L266.436 223.236V230.617ZM244 224.886V228.984C244 231.209 245.81 233.019 248.035 233.019H255.854C258.079 233.019 259.889 231.209 259.889 228.984V224.886C259.889 222.662 258.079 220.852 255.854 220.852H248.035C245.81 220.852 244 222.662 244 224.886ZM245.564 224.886C245.564 223.524 246.672 222.415 248.035 222.415H255.854C257.217 222.415 258.326 223.523 258.326 224.886V228.984C258.326 230.347 257.217 231.456 255.854 231.456H248.035C246.672 231.456 245.564 230.347 245.564 228.984V224.886ZM247.289 228.421V225.45C247.289 225.018 247.639 224.668 248.071 224.668C248.503 224.668 248.853 225.018 248.853 225.45V228.421C248.853 228.853 248.503 229.203 248.071 229.203C247.639 229.203 247.289 228.853 247.289 228.421ZM248.537 219.812C248.105 219.812 247.755 219.462 247.755 219.03C247.755 218.599 248.105 218.248 248.537 218.248H254.01C254.441 218.248 254.791 218.599 254.791 219.03C254.791 219.462 254.441 219.812 254.01 219.812H248.537Z" fill="url(#paint36_linear_63_465)"/>
<path d="M48.3866 217.499C48.6692 217.781 48.9517 218.064 49.2317 218.344C49.9078 219.02 50.5865 219.698 51.2625 220.374C52.0812 221.193 52.9026 222.014 53.7212 222.833C54.429 223.541 55.1394 224.251 55.8472 224.959C56.1905 225.302 56.5312 225.654 56.8798 225.992C56.8851 225.997 56.8903 226.002 56.8956 226.008C56.8956 225.384 56.8956 224.764 56.8956 224.14C56.613 224.423 56.3305 224.706 56.0505 224.986C55.3745 225.662 54.6957 226.34 54.0197 227.016C53.201 227.835 52.3797 228.656 51.561 229.475C50.8532 230.183 50.1428 230.893 49.435 231.601C49.0917 231.944 48.7405 232.285 48.4024 232.634C48.3972 232.639 48.3919 232.644 48.3866 232.649C48.1463 232.89 48.001 233.244 48.001 233.584C48.001 233.909 48.1436 234.295 48.3866 234.519C48.6375 234.749 48.9676 234.921 49.3215 234.905C49.6727 234.889 50.0028 234.77 50.2564 234.519C50.5389 234.237 50.8215 233.954 51.1014 233.674C51.7775 232.998 52.4562 232.319 53.1323 231.643C53.951 230.825 54.7723 230.003 55.591 229.185C56.2988 228.477 57.0092 227.766 57.7169 227.059C58.0603 226.715 58.4115 226.375 58.7495 226.026C58.7548 226.021 58.7601 226.015 58.7654 226.01C59.2698 225.506 59.2698 224.647 58.7654 224.143C58.4828 223.86 58.2002 223.578 57.9203 223.298C57.2442 222.622 56.5655 221.943 55.8894 221.267C55.0707 220.448 54.2494 219.627 53.4307 218.808C52.723 218.101 52.0126 217.39 51.3048 216.682C50.9615 216.339 50.6208 215.988 50.2722 215.65C50.2669 215.645 50.2616 215.639 50.2564 215.634C50.016 215.394 49.6621 215.248 49.3215 215.248C48.9966 215.248 48.6111 215.391 48.3866 215.634C48.1568 215.885 47.9852 216.215 48.001 216.569C48.0169 216.915 48.1357 217.245 48.3866 217.499Z" fill="url(#paint37_linear_63_465)"/>
<path d="M57.2389 234.907C57.6826 234.907 58.1289 234.907 58.5726 234.907C59.6448 234.907 60.717 234.907 61.7892 234.907C63.0833 234.907 64.3747 234.907 65.6687 234.907C66.7858 234.907 67.9029 234.907 69.0227 234.907C69.5667 234.907 70.1107 234.915 70.6548 234.907C70.6627 234.907 70.6706 234.907 70.6785 234.907C71.0166 234.907 71.3731 234.76 71.6134 234.522C71.8432 234.292 72.0148 233.917 71.999 233.587C71.9831 233.246 71.8722 232.892 71.6134 232.652C71.3546 232.414 71.0377 232.267 70.6785 232.267C70.2349 232.267 69.7885 232.267 69.3449 232.267C68.2727 232.267 67.2004 232.267 66.1282 232.267C64.8342 232.267 63.5428 232.267 62.2487 232.267C61.1316 232.267 60.0145 232.267 58.8948 232.267C58.3507 232.267 57.8067 232.259 57.2627 232.267C57.2548 232.267 57.2468 232.267 57.2389 232.267C56.9009 232.267 56.5443 232.414 56.304 232.652C56.0743 232.882 55.9026 233.257 55.9185 233.587C55.9343 233.928 56.0452 234.282 56.304 234.522C56.5628 234.757 56.8824 234.907 57.2389 234.907Z" fill="url(#paint38_linear_63_465)"/>
<path d="M140.567 222.748H135.8C135.685 222.748 135.575 222.794 135.494 222.875C135.412 222.957 135.367 223.067 135.367 223.182V224.482H132.465L128.674 221.955C128.603 221.907 128.519 221.882 128.433 221.882C128.348 221.882 128.264 221.907 128.193 221.955L124.402 224.482H121.622L121.92 223.287C121.936 223.223 121.938 223.156 121.924 223.092C121.91 223.028 121.882 222.967 121.842 222.915C121.801 222.863 121.749 222.821 121.69 222.792C121.631 222.763 121.566 222.748 121.5 222.748H118.9V219.282C118.9 219.167 118.946 219.057 119.027 218.976C119.108 218.894 119.218 218.849 119.333 218.848H125.01C125.111 219.338 125.377 219.777 125.764 220.093C126.15 220.408 126.634 220.581 127.133 220.582H129.733C130.308 220.582 130.859 220.354 131.265 219.947C131.672 219.541 131.9 218.99 131.9 218.415C131.9 217.841 131.672 217.289 131.265 216.883C130.859 216.477 130.308 216.248 129.733 216.248H127.133C126.634 216.249 126.15 216.422 125.764 216.738C125.377 217.053 125.111 217.493 125.01 217.982H119.333C118.989 217.982 118.658 218.119 118.415 218.363C118.171 218.607 118.034 218.937 118.033 219.282V222.748H116.3C116.203 222.748 116.109 222.781 116.033 222.84C115.957 222.9 115.903 222.983 115.88 223.077L115.013 226.543C114.997 226.607 114.996 226.674 115.009 226.738C115.023 226.803 115.051 226.863 115.092 226.915C115.132 226.967 115.184 227.009 115.243 227.038C115.302 227.067 115.367 227.082 115.433 227.082H118.033V228.815C118.034 229.16 118.171 229.49 118.415 229.734C118.658 229.978 118.989 230.115 119.333 230.115H127.567C127.911 230.115 128.242 229.978 128.485 229.734C128.729 229.49 128.866 229.16 128.867 228.815V227.747L132.465 225.348H135.367V226.648C135.367 226.763 135.412 226.874 135.494 226.955C135.575 227.036 135.685 227.082 135.8 227.082H137.967V230.958C137.632 230.843 137.278 230.796 136.925 230.819C136.572 230.842 136.227 230.935 135.91 231.092L135.173 231.461C135.101 231.497 135.04 231.552 134.998 231.621C134.956 231.689 134.933 231.768 134.933 231.848V232.715H131.423C131.323 232.226 131.056 231.787 130.67 231.471C130.283 231.155 129.799 230.982 129.3 230.982H126.7C126.125 230.982 125.574 231.21 125.168 231.616C124.762 232.023 124.533 232.574 124.533 233.148C124.533 233.723 124.762 234.274 125.168 234.681C125.574 235.087 126.125 235.315 126.7 235.315H129.3C129.799 235.315 130.283 235.142 130.67 234.826C131.056 234.51 131.323 234.071 131.423 233.582H134.933V234.882C134.933 234.997 134.979 235.107 135.06 235.188C135.142 235.269 135.252 235.315 135.367 235.315H140.567C140.682 235.315 140.792 235.269 140.873 235.188C140.954 235.107 141 234.997 141 234.882V231.415C141 231.349 140.985 231.284 140.956 231.225C140.927 231.166 140.885 231.114 140.833 231.074C140.781 231.033 140.721 231.005 140.657 230.991C140.592 230.978 140.525 230.979 140.462 230.995L139.528 231.228C139.301 231.285 139.065 231.296 138.833 231.263V227.082H140.567C140.682 227.082 140.792 227.036 140.873 226.955C140.954 226.874 141 226.763 141 226.648V223.182C141 223.067 140.954 222.957 140.873 222.875C140.792 222.794 140.682 222.748 140.567 222.748V222.748ZM127.133 217.115H129.733C130.078 217.115 130.409 217.252 130.653 217.496C130.896 217.74 131.033 218.07 131.033 218.415C131.033 218.76 130.896 219.091 130.653 219.334C130.409 219.578 130.078 219.715 129.733 219.715H127.133C126.789 219.715 126.458 219.578 126.214 219.334C125.97 219.091 125.833 218.76 125.833 218.415C125.833 218.07 125.97 217.74 126.214 217.496C126.458 217.252 126.789 217.115 127.133 217.115ZM116.638 223.615H120.945L120.295 226.215H115.988L116.638 223.615ZM127.567 229.248H119.333C119.218 229.248 119.108 229.203 119.027 229.121C118.946 229.04 118.9 228.93 118.9 228.815V227.082H120.633C120.73 227.082 120.824 227.05 120.9 226.99C120.976 226.931 121.03 226.847 121.054 226.754L121.405 225.348H124.402L128 227.747V228.815C128 228.93 127.954 229.04 127.873 229.121C127.792 229.203 127.682 229.248 127.567 229.248V229.248ZM128.433 226.994L125.315 224.915L128.433 222.836L131.552 224.915L128.433 226.994ZM129.3 234.448H126.7C126.355 234.448 126.025 234.312 125.781 234.068C125.537 233.824 125.4 233.493 125.4 233.148C125.4 232.804 125.537 232.473 125.781 232.229C126.025 231.985 126.355 231.848 126.7 231.848H129.3C129.645 231.848 129.975 231.985 130.219 232.229C130.463 232.473 130.6 232.804 130.6 233.148C130.6 233.493 130.463 233.824 130.219 234.068C129.975 234.312 129.645 234.448 129.3 234.448ZM139.738 232.069L140.133 231.97V234.448H135.8V232.116L136.298 231.868C136.547 231.744 136.822 231.679 137.1 231.679C137.378 231.679 137.653 231.744 137.902 231.868C138.471 232.151 139.122 232.223 139.738 232.069V232.069ZM140.133 226.215H136.233V223.615H140.133V226.215Z" fill="url(#paint39_linear_63_465)"/>
<path d="M191.5 228.415C192.383 228.415 192.667 228.699 192.667 229.582C192.667 232.007 192.467 233.739 192.074 234.73C191.802 235.415 191.59 235.415 191.5 235.415C191.335 235.415 191.131 235.415 190.877 234.746C190.516 233.795 190.333 232.057 190.333 229.582C190.333 228.699 190.617 228.415 191.5 228.415ZM191.5 227.248C190.211 227.248 189.167 227.832 189.167 229.582C189.167 235.123 190.042 236.582 191.5 236.582C192.812 236.582 193.833 235.123 193.833 229.582C193.833 227.832 192.789 227.248 191.5 227.248Z" fill="url(#paint40_linear_63_465)"/>
<path d="M191.5 217.332C187.956 217.332 185.083 220.205 185.083 223.748C185.083 226.01 186.254 227.996 188.021 229.139C188.063 228.69 188.168 228.284 188.33 227.923C187.069 226.963 186.25 225.452 186.25 223.748C186.25 220.854 188.605 218.498 191.5 218.498C194.395 218.498 196.75 220.854 196.75 223.748C196.75 225.452 195.931 226.963 194.67 227.923C194.832 228.284 194.937 228.69 194.979 229.139C196.746 227.996 197.917 226.01 197.917 223.748C197.917 220.205 195.044 217.332 191.5 217.332Z" fill="url(#paint41_linear_63_465)"/>
<path d="M191.5 213.248C185.701 213.248 181 217.95 181 223.748C181 228.411 184.04 232.361 188.245 233.732C188.185 233.337 188.137 232.907 188.099 232.438C184.63 231.075 182.167 227.695 182.167 223.748C182.167 218.602 186.354 214.415 191.5 214.415C196.646 214.415 200.833 218.602 200.833 223.748C200.833 227.699 198.365 231.082 194.891 232.442C194.851 232.887 194.797 233.322 194.726 233.741C198.946 232.38 202 228.422 202 223.748C202 217.95 197.299 213.248 191.5 213.248Z" fill="url(#paint42_linear_63_465)"/>
<path d="M191.5 222.582C192.143 222.582 192.667 223.105 192.667 223.748C192.667 224.392 192.143 224.915 191.5 224.915C190.857 224.915 190.333 224.392 190.333 223.748C190.333 223.105 190.857 222.582 191.5 222.582ZM191.5 221.415C190.211 221.415 189.167 222.46 189.167 223.748C189.167 225.037 190.211 226.082 191.5 226.082C192.789 226.082 193.833 225.037 193.833 223.748C193.833 222.46 192.789 221.415 191.5 221.415Z" fill="url(#paint43_linear_63_465)"/>
</g>
<defs>
<linearGradient id="paint0_linear_63_465" x1="210" y1="23.8928" x2="234" y2="23.8928" gradientUnits="userSpaceOnUse">
<stop stop-color="#7317E9"/>
<stop offset="0.776042" stop-color="#9F0000"/>
</linearGradient>
<linearGradient id="paint1_linear_63_465" x1="210" y1="23.8928" x2="234" y2="23.8928" gradientUnits="userSpaceOnUse">
<stop stop-color="#7317E9"/>
<stop offset="0.776042" stop-color="#9F0000"/>
</linearGradient>
<linearGradient id="paint2_linear_63_465" x1="210" y1="23.8928" x2="234" y2="23.8928" gradientUnits="userSpaceOnUse">
<stop stop-color="#7317E9"/>
<stop offset="0.776042" stop-color="#9F0000"/>
</linearGradient>
<linearGradient id="paint3_linear_63_465" x1="18" y1="24.3201" x2="42" y2="24.3201" gradientUnits="userSpaceOnUse">
<stop stop-color="#7317E9"/>
<stop offset="0.776042" stop-color="#9F0000"/>
</linearGradient>
<linearGradient id="paint4_linear_63_465" x1="18" y1="24.3201" x2="42" y2="24.3201" gradientUnits="userSpaceOnUse">
<stop stop-color="#7317E9"/>
<stop offset="0.776042" stop-color="#9F0000"/>
</linearGradient>
<linearGradient id="paint5_linear_63_465" x1="18" y1="24.3201" x2="42" y2="24.3201" gradientUnits="userSpaceOnUse">
<stop stop-color="#7317E9"/>
<stop offset="0.776042" stop-color="#9F0000"/>
</linearGradient>
<linearGradient id="paint6_linear_63_465" x1="18" y1="24.3201" x2="42" y2="24.3201" gradientUnits="userSpaceOnUse">
<stop stop-color="#7317E9"/>
<stop offset="0.776042" stop-color="#9F0000"/>
</linearGradient>
<linearGradient id="paint7_linear_63_465" x1="18" y1="24.3201" x2="42" y2="24.3201" gradientUnits="userSpaceOnUse">
<stop stop-color="#7317E9"/>
<stop offset="0.776042" stop-color="#9F0000"/>
</linearGradient>
<linearGradient id="paint8_linear_63_465" x1="18" y1="24.3201" x2="42" y2="24.3201" gradientUnits="userSpaceOnUse">
<stop stop-color="#7317E9"/>
<stop offset="0.776042" stop-color="#9F0000"/>
</linearGradient>
<linearGradient id="paint9_linear_63_465" x1="18" y1="24.3201" x2="42" y2="24.3201" gradientUnits="userSpaceOnUse">
<stop stop-color="#7317E9"/>
<stop offset="0.776042" stop-color="#9F0000"/>
</linearGradient>
<linearGradient id="paint10_linear_63_465" x1="82" y1="24.3671" x2="106" y2="24.3671" gradientUnits="userSpaceOnUse">
<stop stop-color="#7317E9"/>
<stop offset="0.776042" stop-color="#9F0000"/>
</linearGradient>
<linearGradient id="paint11_linear_63_465" x1="146" y1="24.0391" x2="170" y2="24.0391" gradientUnits="userSpaceOnUse">
<stop stop-color="#7317E9"/>
<stop offset="0.776042" stop-color="#9F0000"/>
</linearGradient>
<linearGradient id="paint12_linear_63_465" x1="146" y1="24.0391" x2="170" y2="24.0391" gradientUnits="userSpaceOnUse">
<stop stop-color="#7317E9"/>
<stop offset="0.776042" stop-color="#9F0000"/>
</linearGradient>
<linearGradient id="paint13_linear_63_465" x1="210" y1="157.893" x2="234" y2="157.893" gradientUnits="userSpaceOnUse">
<stop stop-color="#7317E9"/>
<stop offset="0.776042" stop-color="#9F0000"/>
</linearGradient>
<linearGradient id="paint14_linear_63_465" x1="210" y1="157.893" x2="234" y2="157.893" gradientUnits="userSpaceOnUse">
<stop stop-color="#7317E9"/>
<stop offset="0.776042" stop-color="#9F0000"/>
</linearGradient>
<linearGradient id="paint15_linear_63_465" x1="210" y1="157.893" x2="234" y2="157.893" gradientUnits="userSpaceOnUse">
<stop stop-color="#7317E9"/>
<stop offset="0.776042" stop-color="#9F0000"/>
</linearGradient>
<linearGradient id="paint16_linear_63_465" x1="18" y1="158.32" x2="42" y2="158.32" gradientUnits="userSpaceOnUse">
<stop stop-color="#7317E9"/>
<stop offset="0.776042" stop-color="#9F0000"/>
</linearGradient>
<linearGradient id="paint17_linear_63_465" x1="18" y1="158.32" x2="42" y2="158.32" gradientUnits="userSpaceOnUse">
<stop stop-color="#7317E9"/>
<stop offset="0.776042" stop-color="#9F0000"/>
</linearGradient>
<linearGradient id="paint18_linear_63_465" x1="18" y1="158.32" x2="42" y2="158.32" gradientUnits="userSpaceOnUse">
<stop stop-color="#7317E9"/>
<stop offset="0.776042" stop-color="#9F0000"/>
</linearGradient>
<linearGradient id="paint19_linear_63_465" x1="18" y1="158.32" x2="42" y2="158.32" gradientUnits="userSpaceOnUse">
<stop stop-color="#7317E9"/>
<stop offset="0.776042" stop-color="#9F0000"/>
</linearGradient>
<linearGradient id="paint20_linear_63_465" x1="18" y1="158.32" x2="42" y2="158.32" gradientUnits="userSpaceOnUse">
<stop stop-color="#7317E9"/>
<stop offset="0.776042" stop-color="#9F0000"/>
</linearGradient>
<linearGradient id="paint21_linear_63_465" x1="18" y1="158.32" x2="42" y2="158.32" gradientUnits="userSpaceOnUse">
<stop stop-color="#7317E9"/>
<stop offset="0.776042" stop-color="#9F0000"/>
</linearGradient>
<linearGradient id="paint22_linear_63_465" x1="18" y1="158.32" x2="42" y2="158.32" gradientUnits="userSpaceOnUse">
<stop stop-color="#7317E9"/>
<stop offset="0.776042" stop-color="#9F0000"/>
</linearGradient>
<linearGradient id="paint23_linear_63_465" x1="82" y1="158.367" x2="106" y2="158.367" gradientUnits="userSpaceOnUse">
<stop stop-color="#7317E9"/>
<stop offset="0.776042" stop-color="#9F0000"/>
</linearGradient>
<linearGradient id="paint24_linear_63_465" x1="146" y1="158.039" x2="170" y2="158.039" gradientUnits="userSpaceOnUse">
<stop stop-color="#7317E9"/>
<stop offset="0.776042" stop-color="#9F0000"/>
</linearGradient>
<linearGradient id="paint25_linear_63_465" x1="146" y1="158.039" x2="170" y2="158.039" gradientUnits="userSpaceOnUse">
<stop stop-color="#7317E9"/>
<stop offset="0.776042" stop-color="#9F0000"/>
</linearGradient>
<linearGradient id="paint26_linear_63_465" x1="-12" y1="91.7445" x2="12" y2="91.7445" gradientUnits="userSpaceOnUse">
<stop stop-color="#7317E9"/>
<stop offset="0.776042" stop-color="#9F0000"/>
</linearGradient>
<linearGradient id="paint27_linear_63_465" x1="244" y1="91.7445" x2="268" y2="91.7445" gradientUnits="userSpaceOnUse">
<stop stop-color="#7317E9"/>
<stop offset="0.776042" stop-color="#9F0000"/>
</linearGradient>
<linearGradient id="paint28_linear_63_465" x1="48" y1="91.1578" x2="72" y2="91.1578" gradientUnits="userSpaceOnUse">
<stop stop-color="#7317E9"/>
<stop offset="0.776042" stop-color="#9F0000"/>
</linearGradient>
<linearGradient id="paint29_linear_63_465" x1="48" y1="91.1578" x2="72" y2="91.1578" gradientUnits="userSpaceOnUse">
<stop stop-color="#7317E9"/>
<stop offset="0.776042" stop-color="#9F0000"/>
</linearGradient>
<linearGradient id="paint30_linear_63_465" x1="115" y1="91.8639" x2="141" y2="91.8639" gradientUnits="userSpaceOnUse">
<stop stop-color="#7317E9"/>
<stop offset="0.776042" stop-color="#9F0000"/>
</linearGradient>
<linearGradient id="paint31_linear_63_465" x1="181" y1="90.9687" x2="202" y2="90.9687" gradientUnits="userSpaceOnUse">
<stop stop-color="#7317E9"/>
<stop offset="0.776042" stop-color="#9F0000"/>
</linearGradient>
<linearGradient id="paint32_linear_63_465" x1="181" y1="90.9687" x2="202" y2="90.9687" gradientUnits="userSpaceOnUse">
<stop stop-color="#7317E9"/>
<stop offset="0.776042" stop-color="#9F0000"/>
</linearGradient>
<linearGradient id="paint33_linear_63_465" x1="181" y1="90.9687" x2="202" y2="90.9687" gradientUnits="userSpaceOnUse">
<stop stop-color="#7317E9"/>
<stop offset="0.776042" stop-color="#9F0000"/>
</linearGradient>
<linearGradient id="paint34_linear_63_465" x1="181" y1="90.9687" x2="202" y2="90.9687" gradientUnits="userSpaceOnUse">
<stop stop-color="#7317E9"/>
<stop offset="0.776042" stop-color="#9F0000"/>
</linearGradient>
<linearGradient id="paint35_linear_63_465" x1="-12" y1="225.535" x2="12" y2="225.535" gradientUnits="userSpaceOnUse">
<stop stop-color="#7317E9"/>
<stop offset="0.776042" stop-color="#9F0000"/>
</linearGradient>
<linearGradient id="paint36_linear_63_465" x1="244" y1="225.535" x2="268" y2="225.535" gradientUnits="userSpaceOnUse">
<stop stop-color="#7317E9"/>
<stop offset="0.776042" stop-color="#9F0000"/>
</linearGradient>
<linearGradient id="paint37_linear_63_465" x1="48" y1="224.949" x2="72" y2="224.949" gradientUnits="userSpaceOnUse">
<stop stop-color="#7317E9"/>
<stop offset="0.776042" stop-color="#9F0000"/>
</linearGradient>
<linearGradient id="paint38_linear_63_465" x1="48" y1="224.949" x2="72" y2="224.949" gradientUnits="userSpaceOnUse">
<stop stop-color="#7317E9"/>
<stop offset="0.776042" stop-color="#9F0000"/>
</linearGradient>
<linearGradient id="paint39_linear_63_465" x1="115" y1="225.655" x2="141" y2="225.655" gradientUnits="userSpaceOnUse">
<stop stop-color="#7317E9"/>
<stop offset="0.776042" stop-color="#9F0000"/>
</linearGradient>
<linearGradient id="paint40_linear_63_465" x1="181" y1="224.76" x2="202" y2="224.76" gradientUnits="userSpaceOnUse">
<stop stop-color="#7317E9"/>
<stop offset="0.776042" stop-color="#9F0000"/>
</linearGradient>
<linearGradient id="paint41_linear_63_465" x1="181" y1="224.76" x2="202" y2="224.76" gradientUnits="userSpaceOnUse">
<stop stop-color="#7317E9"/>
<stop offset="0.776042" stop-color="#9F0000"/>
</linearGradient>
<linearGradient id="paint42_linear_63_465" x1="181" y1="224.76" x2="202" y2="224.76" gradientUnits="userSpaceOnUse">
<stop stop-color="#7317E9"/>
<stop offset="0.776042" stop-color="#9F0000"/>
</linearGradient>
<linearGradient id="paint43_linear_63_465" x1="181" y1="224.76" x2="202" y2="224.76" gradientUnits="userSpaceOnUse">
<stop stop-color="#7317E9"/>
<stop offset="0.776042" stop-color="#9F0000"/>
</linearGradient>
<clipPath id="clip0_63_465">
<rect width="256" height="256" fill="white"/>
</clipPath>
</defs>
</svg>
